<svg width="1400" height="900" viewBox="0 0 1400 900" fill="none" xmlns="http://www.w3.org/2000/svg">
  <rect width="1400" height="900" rx="44" fill="#FFFDF7"/>
  <text x="92" y="112" fill="#141414" font-size="52" font-family="Arial, sans-serif" font-weight="700">Hiring Outcomes</text>
  <text x="92" y="164" fill="#141414" fill-opacity="0.72" font-size="24" font-family="Arial, sans-serif">Operational consistency that translated into measurable results.</text>
  <rect x="122" y="264" width="332" height="420" rx="34" fill="#FFF6AE"/>
  <rect x="534" y="264" width="332" height="420" rx="34" fill="#D9F0FF"/>
  <rect x="946" y="264" width="332" height="420" rx="34" fill="#D9FFD6"/>
  <text x="164" y="346" fill="#141414" font-size="30" font-family="Arial, sans-serif" font-weight="700">30+</text>
  <text x="164" y="390" fill="#141414" fill-opacity="0.74" font-size="24" font-family="Arial, sans-serif">successful hires</text>
  <text x="164" y="476" fill="#141414" font-size="22" font-family="Arial, sans-serif">supported during the</text>
  <text x="164" y="512" fill="#141414" font-size="22" font-family="Arial, sans-serif">internship period</text>
  <text x="164" y="594" fill="#141414" font-size="22" font-family="Arial, sans-serif">High-volume support</text>
  <text x="576" y="346" fill="#141414" font-size="30" font-family="Arial, sans-serif" font-weight="700">SEA + EMEA</text>
  <text x="576" y="390" fill="#141414" fill-opacity="0.74" font-size="24" font-family="Arial, sans-serif">regional scope</text>
  <path d="M598 544H800" stroke="#141414" stroke-width="8" stroke-linecap="round"/>
  <path d="M626 544V486H666V544" fill="#FFFDF7" stroke="#141414" stroke-width="8" stroke-linejoin="round"/>
  <path d="M692 544V430H732V544" fill="#FFFDF7" stroke="#141414" stroke-width="8" stroke-linejoin="round"/>
  <path d="M758 544V372H798V544" fill="#FFFDF7" stroke="#141414" stroke-width="8" stroke-linejoin="round"/>
  <text x="576" y="626" fill="#141414" font-size="22" font-family="Arial, sans-serif">Cross-market coordination</text>
  <text x="988" y="346" fill="#141414" font-size="30" font-family="Arial, sans-serif" font-weight="700">Daily + Weekly</text>
  <text x="988" y="390" fill="#141414" fill-opacity="0.74" font-size="24" font-family="Arial, sans-serif">cadence held steady</text>
  <path d="M1028 518L1088 578L1188 454" stroke="#141414" stroke-width="12" stroke-linecap="round" stroke-linejoin="round"/>
  <text x="988" y="626" fill="#141414" font-size="22" font-family="Arial, sans-serif">Reliable execution under pace</text>
  <path d="M1260 118L1270 140L1294 150L1270 160L1260 182L1250 160L1226 150L1250 140L1260 118Z" fill="#FFC2CF"/>
</svg>
