<svg width="1400" height="900" viewBox="0 0 1400 900" fill="none" xmlns="http://www.w3.org/2000/svg">
  <rect width="1400" height="900" rx="44" fill="#FFFDF7"/>
  <text x="92" y="112" fill="#141414" font-size="52" font-family="Arial, sans-serif" font-weight="700">Coordinating Recruitment at Speed</text>
  <text x="92" y="164" fill="#141414" fill-opacity="0.72" font-size="24" font-family="Arial, sans-serif">Stakeholder alignment, interview flow, and daily screening rhythm.</text>
  <rect x="122" y="262" width="320" height="430" rx="34" fill="#D9F0FF"/>
  <rect x="540" y="262" width="320" height="430" rx="34" fill="#FFF6AE"/>
  <rect x="958" y="262" width="320" height="430" rx="34" fill="#FFC2CF"/>
  <text x="164" y="338" fill="#141414" font-size="26" font-family="Arial, sans-serif" font-weight="700">Pre-screening</text>
  <text x="164" y="414" fill="#141414" font-size="76" font-family="Arial, sans-serif" font-weight="700">20+</text>
  <text x="164" y="456" fill="#141414" fill-opacity="0.74" font-size="24" font-family="Arial, sans-serif">interviews / day</text>
  <text x="164" y="540" fill="#141414" font-size="24" font-family="Arial, sans-serif">Transcription</text>
  <text x="164" y="582" fill="#141414" font-size="24" font-family="Arial, sans-serif">Candidate notes</text>
  <text x="164" y="624" fill="#141414" font-size="24" font-family="Arial, sans-serif">Pre-qualification</text>
  <text x="582" y="338" fill="#141414" font-size="26" font-family="Arial, sans-serif" font-weight="700">Interview Ops</text>
  <text x="582" y="414" fill="#141414" font-size="76" font-family="Arial, sans-serif" font-weight="700">30+</text>
  <text x="700" y="456" fill="#141414" fill-opacity="0.74" font-size="22" font-family="Arial, sans-serif" text-anchor="middle">candidate interviews / week</text>
  <text x="582" y="540" fill="#141414" font-size="24" font-family="Arial, sans-serif">Panel scheduling</text>
  <text x="582" y="582" fill="#141414" font-size="24" font-family="Arial, sans-serif">Cross-team follow-up</text>
  <text x="582" y="624" fill="#141414" font-size="24" font-family="Arial, sans-serif">Stakeholder updates</text>
  <text x="1000" y="338" fill="#141414" font-size="26" font-family="Arial, sans-serif" font-weight="700">Hiring Flow</text>
  <path d="M1012 446C1012 446 1054 502 1118 502C1182 502 1224 446 1224 446" stroke="#141414" stroke-width="10" stroke-linecap="round"/>
  <circle cx="1012" cy="398" r="20" fill="#FFFDF7" stroke="#141414" stroke-width="7"/>
  <circle cx="1118" cy="398" r="20" fill="#FFFDF7" stroke="#141414" stroke-width="7"/>
  <circle cx="1224" cy="398" r="20" fill="#FFFDF7" stroke="#141414" stroke-width="7"/>
  <text x="1000" y="554" fill="#141414" font-size="24" font-family="Arial, sans-serif">Shanghai</text>
  <text x="1000" y="594" fill="#141414" font-size="24" font-family="Arial, sans-serif">Chengdu</text>
  <text x="1000" y="634" fill="#141414" font-size="24" font-family="Arial, sans-serif">SEA &amp; EMEA</text>
  <path d="M442 478H540" stroke="#141414" stroke-width="8" stroke-linecap="round"/>
  <path d="M514 446L540 478L514 510" stroke="#141414" stroke-width="8" stroke-linecap="round" stroke-linejoin="round"/>
  <path d="M860 478H958" stroke="#141414" stroke-width="8" stroke-linecap="round"/>
  <path d="M932 446L958 478L932 510" stroke="#141414" stroke-width="8" stroke-linecap="round" stroke-linejoin="round"/>
  <path d="M1260 118L1270 140L1294 150L1270 160L1260 182L1250 160L1226 150L1250 140L1260 118Z" fill="#9BE8A3"/>
</svg>
