<svg width="1400" height="900" viewBox="0 0 1400 900" fill="none" xmlns="http://www.w3.org/2000/svg">
  <rect width="1400" height="900" rx="44" fill="#FFFDF7"/>
  <rect x="84" y="86" width="1232" height="728" rx="42" fill="#F6F1E7"/>
  <rect x="144" y="210" width="1112" height="520" rx="34" fill="#FFFDF7"/>
  <rect x="884" y="224" width="316" height="168" rx="30" fill="#D9FFD6"/>
  <text x="932" y="286" fill="#141414" font-size="28" font-family="Arial, sans-serif" font-weight="700">Starting on the floor</text>
  <text x="932" y="334" fill="#141414" fill-opacity="0.72" font-size="21" font-family="Arial, sans-serif">Customer service</text>
  <text x="932" y="364" fill="#141414" fill-opacity="0.72" font-size="21" font-family="Arial, sans-serif">Register support</text>
  <text x="932" y="394" fill="#141414" fill-opacity="0.72" font-size="21" font-family="Arial, sans-serif">Helping shoppers fast</text>
  <rect x="230" y="272" width="320" height="292" rx="28" fill="#FFE9A8"/>
  <rect x="262" y="304" width="256" height="22" rx="11" fill="#141414" fill-opacity="0.14"/>
  <rect x="262" y="342" width="256" height="22" rx="11" fill="#141414" fill-opacity="0.14"/>
  <rect x="262" y="380" width="256" height="22" rx="11" fill="#141414" fill-opacity="0.14"/>
  <rect x="262" y="418" width="256" height="22" rx="11" fill="#141414" fill-opacity="0.14"/>
  <path d="M580 500C668 432 748 392 848 370" stroke="#141414" stroke-width="10" stroke-linecap="round"/>
  <path d="M820 348L854 368L824 394" stroke="#141414" stroke-width="10" stroke-linecap="round" stroke-linejoin="round"/>
  <image href="/portfolio/woolworths/cover/ned-woolies.png" x="570" y="210" width="340" height="500" preserveAspectRatio="xMidYMid meet"/>
  <path d="M186 150C238 110 296 112 346 150" stroke="#FFC2CF" stroke-width="10" stroke-linecap="round"/>
  <path d="M1182 148L1196 176L1228 186L1196 196L1182 224L1168 196L1136 186L1168 176L1182 148Z" fill="#FFD36D"/>
  <path d="M1090 628C1136 610 1184 610 1230 628" stroke="#8FBCFF" stroke-width="10" stroke-linecap="round"/>
</svg>
