<svg width="1400" height="900" viewBox="0 0 1400 900" fill="none" xmlns="http://www.w3.org/2000/svg">
  <rect width="1400" height="900" rx="44" fill="#FFFDF7"/>
  <rect x="84" y="86" width="1232" height="728" rx="42" fill="#EEF7FF"/>
  <rect x="152" y="180" width="1096" height="560" rx="38" fill="#FFFDF7"/>
  <image href="/portfolio/woolworths/cover/ned-woolies.png" x="164" y="182" width="430" height="520" preserveAspectRatio="xMidYMid meet"/>
  <rect x="730" y="240" width="408" height="244" rx="30" fill="#FFF6AE"/>
  <text x="780" y="304" fill="#141414" font-size="28" font-family="Arial, sans-serif" font-weight="700">Store rhythm upgrade</text>
  <text x="780" y="354" fill="#141414" fill-opacity="0.72" font-size="21" font-family="Arial, sans-serif">Online orders</text>
  <text x="780" y="386" fill="#141414" fill-opacity="0.72" font-size="21" font-family="Arial, sans-serif">Replenishment</text>
  <text x="780" y="418" fill="#141414" fill-opacity="0.72" font-size="21" font-family="Arial, sans-serif">Cross-team support</text>
  <rect x="742" y="542" width="332" height="112" rx="28" fill="#D9F0FF"/>
  <text x="792" y="608" fill="#141414" font-size="24" font-family="Arial, sans-serif" font-weight="700">Brisbane → Sydney</text>
  <path d="M520 564C608 534 670 498 742 438" stroke="#141414" stroke-width="10" stroke-linecap="round"/>
  <path d="M718 430L746 436L734 462" stroke="#141414" stroke-width="10" stroke-linecap="round" stroke-linejoin="round"/>
  <path d="M1190 154L1200 176L1224 186L1200 196L1190 218L1180 196L1156 186L1180 176L1190 154Z" fill="#9BE8A3"/>
  <path d="M930 706C982 678 1040 678 1092 706" stroke="#FFC2CF" stroke-width="10" stroke-linecap="round"/>
</svg>
